<svg xmlns="http://www.w3.org/2000/svg" viewBox="0 0 512 512">
  <defs>
    <linearGradient id="grad" x1="0%" y1="0%" x2="100%" y2="100%">
      <stop offset="0%" style="stop-color:#4f46e5;stop-opacity:1" />
      <stop offset="100%" style="stop-color:#7c3aed;stop-opacity:1" />
    </linearGradient>
  </defs>
  <rect width="512" height="512" rx="128" fill="url(#grad)" />
  <path d="M144 112h224c17.67 0 32 14.33 32 32v224c0 17.67-14.33 32-32 32H144c-17.67 0-32-14.33-32-32V144c0-17.67 14.33-32 32-32zm0 64h224v192H144V176z" fill="white" fill-opacity="0.2"/>
  <rect x="128" y="160" width="256" height="224" rx="16" fill="none" stroke="white" stroke-width="24" />
  <path d="M128 224h256M192 128V96M320 128V96" stroke="white" stroke-width="24" stroke-linecap="round" />
  <rect x="176" y="272" width="48" height="48" rx="8" fill="white" />
</svg>
